<?xml version="1.0" encoding="UTF-8" standalone="no"?>
<svg width="189px" height="70px" viewBox="0 0 189 70" version="1.1" xmlns="http://www.w3.org/2000/svg" xmlns:xlink="http://www.w3.org/1999/xlink" xmlns:sketch="http://www.bohemiancoding.com/sketch/ns">
    <!-- Generator: Sketch 3.3.1 (12005) - http://www.bohemiancoding.com/sketch -->
    <title>paypal</title>
    <desc>Created with Sketch.</desc>
    <defs>
        <path id="path-1" d="M0,1.07718919 L181.403091,1.07718919 L181.403091,46.9237838 L0,46.9237838"></path>
        <path id="path-3" d="M0,1.07718919 L181.403091,1.07718919 L181.403091,46.9237838 L0,46.9237838"></path>
    </defs>
    <g id="koszyk" stroke="none" stroke-width="1" fill="none" fill-rule="evenodd" sketch:type="MSPage">
        <g id="paypal" sketch:type="MSArtboardGroup">
            <g id="paypal_rgb" sketch:type="MSLayerGroup" transform="translate(3.000000, 11.000000)">
                <g id="Group-3">
                    <mask id="mask-2" sketch:name="Clip 2" fill="white">
                        <use xlink:href="#path-1"></use>
                    </mask>
                    <g id="Clip-2"></g>
                    <path d="M33.1990909,4.53994595 C31.0685455,2.11627027 27.2172727,1.07718919 22.2905455,1.07718919 L7.99145455,1.07718919 C6.98345455,1.07718919 6.12690909,1.80886486 5.96909091,2.80094595 L0.0152727273,40.4885946 C-0.103090909,41.2317027 0.473454545,41.9049459 1.22818182,41.9049459 L10.0558182,41.9049459 L12.2729091,27.8697297 L12.2041818,28.3092432 C12.362,27.3171622 13.2121818,26.5854865 14.2189091,26.5854865 L18.4138182,26.5854865 C26.6547273,26.5854865 33.1074545,23.2446757 34.9923636,13.5804595 C35.0483636,13.2946486 35.0967273,13.0164595 35.1387273,12.7446216 C34.9007273,12.6188649 34.9007273,12.6188649 35.1387273,12.7446216 C35.7,9.17262162 35.1349091,6.74132432 33.1990909,4.53994595" id="Fill-1" fill="#27346A" sketch:type="MSShapeGroup" mask="url(#mask-2)"></path>
                </g>
                <path d="M141.270182,22.4736216 C140.730545,26.0100541 138.024727,26.0100541 135.406727,26.0100541 L133.917636,26.0100541 L134.962545,19.4071892 C135.024909,19.0083243 135.369818,18.7148919 135.774545,18.7148919 L136.458,18.7148919 C138.239818,18.7148919 139.922364,18.7148919 140.790364,19.7272973 C141.309636,20.3332162 141.466182,21.2325676 141.270182,22.4736216 M140.131091,13.2463784 L130.259818,13.2463784 C129.584,13.2463784 129.01,13.7367027 128.904364,14.4023243 L124.913091,39.6654595 C124.834182,40.1634054 125.221091,40.6143514 125.725091,40.6143514 L130.790545,40.6143514 C131.262727,40.6143514 131.664909,40.2713784 131.738727,39.8064595 L132.871455,32.6434054 C132.975818,31.9777838 133.551091,31.4874595 134.225636,31.4874595 L137.348909,31.4874595 C143.851273,31.4874595 147.604545,28.3473514 148.584545,22.1217568 C149.026182,19.4008378 148.602364,17.2617027 147.325818,15.7640541 C145.922,14.1177838 143.433818,13.2463784 140.131091,13.2463784" id="Fill-4" fill="#2790C3" sketch:type="MSShapeGroup"></path>
                <path d="M70.8629091,22.4736216 C70.3232727,26.0100541 67.6174545,26.0100541 64.9994545,26.0100541 L63.5103636,26.0100541 L64.5552727,19.4071892 C64.6176364,19.0083243 64.9625455,18.7148919 65.3672727,18.7148919 L66.0507273,18.7148919 C67.8325455,18.7148919 69.5150909,18.7148919 70.3830909,19.7272973 C70.9023636,20.3332162 71.0589091,21.2325676 70.8629091,22.4736216 M69.7238182,13.2463784 L59.8525455,13.2463784 C59.1767273,13.2463784 58.6027273,13.7367027 58.4970909,14.4023243 L54.5058182,39.6654595 C54.4269091,40.1634054 54.8125455,40.6143514 55.3178182,40.6143514 L60.032,40.6143514 C60.7065455,40.6143514 61.2805455,40.124027 61.3861818,39.4596757 L62.4641818,32.6434054 C62.5685455,31.9777838 63.1438182,31.4874595 63.8183636,31.4874595 L66.9416364,31.4874595 C73.444,31.4874595 77.1972727,28.3473514 78.1772727,22.1217568 C78.6189091,19.4008378 78.1950909,17.2617027 76.9185455,15.7640541 C75.5147273,14.1177838 73.0265455,13.2463784 69.7238182,13.2463784" id="Fill-5" fill="#27346A" sketch:type="MSShapeGroup"></path>
                <path d="M92.6405455,31.5433514 C92.1836364,34.2388649 90.0403636,36.049 87.3052727,36.049 C85.9345455,36.049 84.8361818,35.6082162 84.1310909,34.7749189 C83.4323636,33.9492432 83.1689091,32.7717027 83.3903636,31.4620541 C83.8154545,28.7894054 85.9943636,26.9221081 88.6874545,26.9221081 C90.0301818,26.9221081 91.1196364,27.3667027 91.8387273,28.2076216 C92.5629091,29.0548919 92.848,30.2387838 92.6405455,31.5433514 M99.2281818,22.3605676 L94.5012727,22.3605676 C94.0965455,22.3605676 93.7516364,22.654 93.688,23.0541351 L93.4805455,24.3726757 L93.1509091,23.8950541 C92.1263636,22.4126486 89.8443636,21.915973 87.5661818,21.915973 C82.3441818,21.915973 77.8832727,25.8665135 77.0152727,31.4061622 C76.5634545,34.1702703 77.2049091,36.8111622 78.7754545,38.6543243 C80.2174545,40.3475946 82.2754545,41.0525946 84.728,41.0525946 C88.9381818,41.0525946 91.2723636,38.3545405 91.2723636,38.3545405 L91.0610909,39.6654595 C90.9821818,40.1634054 91.3678182,40.6143514 91.8743636,40.6143514 L96.1303636,40.6143514 C96.8061818,40.6143514 97.3801818,40.1252973 97.4858182,39.4596757 L100.041455,23.3094595 C100.120364,22.8115135 99.7334545,22.3605676 99.2281818,22.3605676" id="Fill-6" fill="#27346A" sketch:type="MSShapeGroup"></path>
                <g id="Group-14">
                    <mask id="mask-4" sketch:name="Clip 8" fill="white">
                        <use xlink:href="#path-3"></use>
                    </mask>
                    <g id="Clip-8"></g>
                    <path d="M163.047818,31.5433514 C162.590909,34.2388649 160.447636,36.049 157.712545,36.049 C156.341818,36.049 155.243455,35.6082162 154.538364,34.7749189 C153.838364,33.9492432 153.576182,32.7717027 153.797636,31.4620541 C154.222727,28.7894054 156.401636,26.9221081 159.094727,26.9221081 C160.437455,26.9221081 161.526909,27.3667027 162.246,28.2076216 C162.970182,29.0548919 163.255273,30.2387838 163.047818,31.5433514 M169.635455,22.3605676 L164.908545,22.3605676 C164.503818,22.3605676 164.158909,22.654 164.095273,23.0541351 L163.887818,24.3726757 L163.556909,23.8950541 C162.533636,22.4126486 160.251636,21.915973 157.973455,21.915973 C152.751455,21.915973 148.290545,25.8665135 147.422545,31.4061622 C146.970727,34.1702703 147.612182,36.8111622 149.182727,38.6543243 C150.624727,40.3475946 152.682727,41.0525946 155.135273,41.0525946 C159.345455,41.0525946 161.679636,38.3545405 161.679636,38.3545405 L161.468364,39.6654595 C161.389455,40.1634054 161.775091,40.6143514 162.281636,40.6143514 L166.537636,40.6143514 C167.213455,40.6143514 167.787455,40.1252973 167.893091,39.4596757 L170.448727,23.3094595 C170.527636,22.8115135 170.140727,22.3605676 169.635455,22.3605676" id="Fill-7" fill="#2790C3" sketch:type="MSShapeGroup" mask="url(#mask-4)"></path>
                    <path d="M124.404,22.3605676 L119.652909,22.3605676 C119.198545,22.3605676 118.773455,22.5854054 118.518909,22.9614054 L111.964364,32.5951351 L109.187273,23.3374054 C109.012909,22.7581622 108.478364,22.3605676 107.872545,22.3605676 L103.202909,22.3605676 C102.639091,22.3605676 102.242,22.9144054 102.424,23.4466486 L107.654909,38.7737297 L102.734545,45.7030541 C102.348909,46.2467297 102.738364,46.9987297 103.406545,46.9987297 L108.152545,46.9987297 C108.601818,46.9987297 109.023091,46.778973 109.280182,46.4105946 L125.079818,23.6498919 C125.457818,23.1049459 125.068364,22.3605676 124.404,22.3605676" id="Fill-9" fill="#27346A" sketch:type="MSShapeGroup" mask="url(#mask-4)"></path>
                    <path d="M175.206182,13.9412162 L171.155091,39.6667297 C171.076182,40.1646757 171.461818,40.6156216 171.967091,40.6156216 L176.042364,40.6156216 C176.716909,40.6156216 177.292182,40.1252973 177.396545,39.4596757 L181.391636,14.1965405 C181.470545,13.6985946 181.084909,13.2476486 180.578364,13.2476486 L176.019455,13.2476486 C175.613455,13.2476486 175.268545,13.5410811 175.206182,13.9412162" id="Fill-10" fill="#2790C3" sketch:type="MSShapeGroup" mask="url(#mask-4)"></path>
                    <path d="M33.1990909,4.53994595 C31.0685455,2.11627027 27.2172727,1.07718919 22.2905455,1.07718919 L7.99145455,1.07718919 C6.98345455,1.07718919 6.12690909,1.80886486 5.96909091,2.80094595 L0.0152727273,40.4885946 C-0.103090909,41.2317027 0.473454545,41.9049459 1.22818182,41.9049459 L10.0558182,41.9049459 L12.2729091,27.8697297 L12.2041818,28.3092432 C12.362,27.3171622 13.2121818,26.5854865 14.2189091,26.5854865 L18.4138182,26.5854865 C26.6547273,26.5854865 33.1074545,23.2446757 34.9923636,13.5804595 C35.0483636,13.2946486 35.0967273,13.0164595 35.1387273,12.7446216 C34.9007273,12.6188649 34.9007273,12.6188649 35.1387273,12.7446216 C35.7,9.17262162 35.1349091,6.74132432 33.1990909,4.53994595" id="Fill-11" fill="#27346A" sketch:type="MSShapeGroup" mask="url(#mask-4)"></path>
                    <path d="M14.6554545,12.7916216 C14.7496364,12.1945946 15.134,11.7055405 15.6507273,11.4578378 C15.8861818,11.3460541 16.1483636,11.2838108 16.4232727,11.2838108 L27.6334545,11.2838108 C28.9609091,11.2838108 30.1992727,11.3701892 31.3307273,11.5518378 C31.6552727,11.6039189 31.9696364,11.6636216 32.2750909,11.7322162 C32.5805455,11.7995405 32.8770909,11.8757568 33.1647273,11.9595946 C33.3085455,12.0015135 33.4498182,12.0447027 33.5885455,12.0904324 C34.1447273,12.2758919 34.6627273,12.4918378 35.1387273,12.7446216 C35.7,9.17135135 35.1349091,6.74132432 33.1990909,4.53994595 C31.0672727,2.11627027 27.2172727,1.07718919 22.2905455,1.07718919 L7.99018182,1.07718919 C6.98345455,1.07718919 6.12690909,1.80886486 5.96909091,2.80094595 L0.0152727273,40.4873243 C-0.103090909,41.2317027 0.473454545,41.9036757 1.22690909,41.9036757 L10.0558182,41.9036757 L14.6554545,12.7916216" id="Fill-12" fill="#27346A" sketch:type="MSShapeGroup" mask="url(#mask-4)"></path>
                    <path d="M35.1387273,12.7446216 L35.1387273,12.7446216 C35.0954545,13.0177297 35.0483636,13.2946486 34.9923636,13.5804595 C33.1074545,23.2434054 26.6547273,26.5854865 18.4138182,26.5854865 L14.2176364,26.5854865 C13.2109091,26.5854865 12.3607273,27.3171622 12.2041818,28.3092432 L9.44618182,45.7602162 C9.34309091,46.4105946 9.84709091,47 10.5063636,47 L17.948,47 C18.8287273,47 19.5783636,46.3597838 19.7158182,45.4921892 L19.7883636,45.1136486 L21.1909091,36.2420811 L21.2812727,35.7517568 C21.4187273,34.8841622 22.1683636,34.2439459 23.0490909,34.2439459 L24.1627273,34.2439459 C31.3714545,34.2439459 37.016,31.3210541 38.6654545,22.8674054 C39.354,19.3347838 38.9976364,16.3852162 37.1763636,14.3134054 C36.624,13.6858919 35.938,13.1676216 35.1387273,12.7446216" id="Fill-13" fill="#2790C3" sketch:type="MSShapeGroup" mask="url(#mask-4)"></path>
                </g>
                <path d="M33.166,11.9595946 C32.8783636,11.8757568 32.5818182,11.7995405 32.2763636,11.7322162 C31.9709091,11.6648919 31.6552727,11.6051892 31.332,11.5531081 C30.1992727,11.3701892 28.9621818,11.2838108 27.6334545,11.2838108 L16.4245455,11.2838108 C16.1483636,11.2838108 15.8861818,11.3460541 15.652,11.4591081 C15.134,11.7068108 14.7509091,12.1945946 14.6567273,12.7928919 L12.2741818,27.8697297 L12.2054545,28.3092432 C12.362,27.3171622 13.2121818,26.5854865 14.2189091,26.5854865 L18.4150909,26.5854865 C26.656,26.5854865 33.1087273,23.2446757 34.9936364,13.5804595 C35.0496364,13.2946486 35.0967273,13.0177297 35.14,12.7446216 C34.6627273,12.4931081 34.146,12.2758919 33.5898182,12.0917027 C33.4510909,12.045973 33.3098182,12.0015135 33.166,11.9595946" id="Fill-15" fill="#1F264F" sketch:type="MSShapeGroup"></path>
            </g>
        </g>
    </g>
</svg>