<?xml version="1.0" encoding="UTF-8" standalone="no"?>
<svg width="189px" height="58px" viewBox="0 0 189 58" version="1.1" xmlns="http://www.w3.org/2000/svg" xmlns:xlink="http://www.w3.org/1999/xlink" xmlns:sketch="http://www.bohemiancoding.com/sketch/ns">
    <!-- Generator: Sketch 3.3.1 (12005) - http://www.bohemiancoding.com/sketch -->
    <title>payu</title>
    <desc>Created with Sketch.</desc>
    <defs>
        <path id="path-1" d="M0.0192413793,0.224303448 L92.7479379,0.224303448 L92.7479379,46.9805517 L0.0192413793,46.9805517"></path>
    </defs>
    <g id="koszyk" stroke="none" stroke-width="1" fill="none" fill-rule="evenodd" sketch:type="MSPage">
        <g id="payu" sketch:type="MSArtboardGroup">
            <g id="PAYU-LOGO_SOLID_LIME_RGB" sketch:type="MSLayerGroup" transform="translate(2.000000, 5.000000)">
                <g id="Group-8">
                    <mask id="mask-2" sketch:name="Clip 2" fill="white">
                        <use xlink:href="#path-1"></use>
                    </mask>
                    <g id="Clip-2"></g>
                    <path d="M80.4042724,17.8791241 C79.8016966,17.8788 79.3132862,17.3851379 79.3136069,16.7760828 L79.3152103,11.902669 L78.9130655,11.902669 C76.4187414,11.902669 75.4909862,12.3188621 75.4909862,14.6153793 L75.4909862,19.9892621 C75.4906655,20.0006069 75.4893828,20.0119517 75.4893828,20.0232966 L75.4893828,21.2012138 C75.4887414,21.2420552 75.4861759,21.2799793 75.4861759,21.3221172 L75.4861759,28.8304483 C75.4861759,29.7477586 75.3114,30.4780414 74.9503034,31.0452828 C74.2704414,32.1042414 72.9238655,32.5859103 70.7694724,32.5888276 C68.6160414,32.5859103 67.2697862,32.1045655 66.5896034,31.0465793 C66.2281862,30.4790138 66.0530897,29.7484069 66.0530897,28.8304483 L66.0530897,21.3221172 C66.0530897,21.2799793 66.0505241,21.2420552 66.0498828,21.2012138 L66.0498828,20.0232966 C66.0498828,20.0119517 66.0482793,20.0006069 66.0479586,19.9892621 L66.0479586,14.6153793 C66.0479586,12.3188621 65.1205241,11.902669 62.6262,11.902669 L61.840831,11.902669 C59.3461862,11.902669 58.4187517,12.3188621 58.4187517,14.6153793 L58.4187517,28.8304483 C58.4187517,31.1172414 58.928969,33.0536414 59.914769,34.6140414 C61.8187034,37.6385724 65.5069552,39.2495379 70.750231,39.2495379 C70.7569655,39.2495379 70.7630586,39.2492138 70.7694724,39.2492138 C70.7762069,39.2492138 70.7823,39.2495379 70.7890345,39.2495379 C76.0323103,39.2495379 79.7202414,37.6385724 81.6244966,34.6140414 C82.6102966,33.0536414 83.1205138,31.1172414 83.1205138,28.8304483 L83.1205138,17.8800966 L80.4042724,17.8791241" id="Fill-1" fill="#95C03E" sketch:type="MSShapeGroup" mask="url(#mask-2)"></path>
                    <path d="M91.9359517,10.0265586 L87.833369,10.0249379 C87.3856862,10.0249379 87.0229862,9.65801379 87.0233069,9.20584138 L87.0245897,5.0076069 C87.0249103,4.55511034 87.3876103,4.18851034 87.8352931,4.18883448 L91.9381966,4.19013103 C92.3855586,4.19045517 92.7482586,4.55705517 92.7479379,5.00955172 L92.7466552,9.20778621 C92.7463345,9.65995862 92.3836345,10.0265586 91.9359517,10.0265586" id="Fill-3" fill="#95C03E" sketch:type="MSShapeGroup" mask="url(#mask-2)"></path>
                    <path d="M86.4688345,4.18915862 L83.6823621,4.18818621 C83.3783483,4.18818621 83.1320586,3.93892414 83.1320586,3.63164138 L83.1330207,0.7802 C83.1333414,0.473241379 83.379631,0.224303448 83.6836448,0.224303448 L86.4701172,0.225275862 C86.774131,0.225275862 87.0204207,0.474537931 87.0204207,0.78182069 L87.0194586,3.63326207 C87.0191379,3.94022069 86.7728483,4.18915862 86.4688345,4.18915862" id="Fill-4" fill="#95C03E" sketch:type="MSShapeGroup" mask="url(#mask-2)"></path>
                    <path d="M15.9251276,20.5516414 C15.9251276,23.9249448 15.0730552,25.7527586 10.5776276,25.7527586 L3.65778621,25.7527586 L3.65778621,17.0470621 C3.65778621,15.8399724 4.10194138,15.3910414 5.29618966,15.3910414 L10.5776276,15.3910414 C13.964431,15.3910414 15.9251276,16.2354207 15.9251276,20.5516414 L15.9251276,20.5516414 Z M10.5776276,11.8978069 L4.61055517,11.8978069 C1.42193793,11.8978069 0,13.3350345 0,16.5579379 L0,37.259331 C0,38.5043448 0.395410345,38.9040069 1.62717931,38.9040069 L2.0306069,38.9040069 C3.26237586,38.9040069 3.65778621,38.5043448 3.65778621,37.259331 L3.65778621,29.2054759 L10.5776276,29.2054759 C16.7214,29.2054759 19.5829138,26.4554897 19.5829138,20.5516414 C19.5829138,14.647469 16.7214,11.8978069 10.5776276,11.8978069 L10.5776276,11.8978069 Z" id="Fill-5" fill="#95C03E" sketch:type="MSShapeGroup" mask="url(#mask-2)"></path>
                    <path d="M32.4541138,29.5996276 L32.4541138,32.4374552 C32.4541138,34.7508276 31.605569,36.0901655 27.2679207,36.0901655 C24.4022379,36.0901655 23.0091621,35.0419034 23.0091621,32.8857379 C23.0091621,30.5208276 24.4067276,29.5996276 27.9936414,29.5996276 L32.4541138,29.5996276 L32.4541138,29.5996276 Z M27.2679207,17.834069 C24.9031552,17.834069 23.4212483,18.1338966 22.8590793,18.2473448 C21.8639793,18.4661379 21.4477241,18.7423034 21.4477241,19.8861862 L21.4477241,20.212269 C21.4477241,20.6605517 21.5134655,20.9710759 21.6542483,21.1895448 C21.8181207,21.4439931 22.082369,21.573 22.4396172,21.573 C22.6137517,21.573 22.8157862,21.5435034 23.0566241,21.4825655 C23.6252069,21.3389724 25.4419138,21.0420621 27.4292276,21.0420621 C30.9985034,21.0420621 32.4541138,22.0413793 32.4541138,24.4912138 L32.4541138,26.6768759 L27.9532345,26.6768759 C22.167031,26.6768759 19.4722759,28.6495793 19.4722759,32.8857379 C19.4722759,36.9945103 22.2552207,39.2573172 27.3083276,39.2573172 C33.3132414,39.2573172 35.991,37.1919103 35.991,32.5596552 L35.991,24.4912138 C35.991,20.0116276 33.1375034,17.834069 27.2679207,17.834069 L27.2679207,17.834069 Z" id="Fill-6" fill="#95C03E" sketch:type="MSShapeGroup" mask="url(#mask-2)"></path>
                    <path d="M55.7817207,18.7990276 C55.5270931,18.4752138 55.0447759,18.4304828 54.5618172,18.4304828 L54.1987966,18.4304828 C52.9949276,18.4304828 52.5225517,18.8061586 52.2560586,19.9740276 L48.9099828,34.0318897 C48.4921241,35.7595448 47.9059034,36.0755793 46.9015034,36.0755793 C45.6719793,36.0755793 45.1797207,35.7789931 44.6893862,34.0254069 L40.8997966,19.9672207 C40.5861621,18.7896276 40.1234069,18.4304828 38.9188966,18.4304828 L38.5962828,18.4304828 C38.1097966,18.4304828 37.6258759,18.4758621 37.3773414,18.8035655 C37.1284862,19.1319172 37.2125069,19.6216897 37.3407828,20.1030345 L41.1707793,34.2827724 C41.8891241,36.9964552 42.7434414,39.242731 45.9339828,39.242731 C46.5298241,39.242731 47.0804483,39.1591034 47.5387138,39.002869 C46.5711931,42.0792621 45.5863552,43.4364276 42.6831517,43.7375517 C42.0940448,43.7871448 41.7111414,43.8723931 41.4975621,44.1615241 C41.2762862,44.4613517 41.3266345,44.8905103 41.4058448,45.2746138 L41.4856966,45.6379724 C41.6591897,46.4787862 41.9542241,47 42.8880724,47 C42.9862034,47 43.0917103,46.9948138 43.2049138,46.9847655 C47.5399966,46.6982276 49.8627517,44.3391517 51.2221552,38.8427448 L55.8596483,20.0929862 C55.9696448,19.6119655 56.0360276,19.1221931 55.7817207,18.7990276" id="Fill-7" fill="#95C03E" sketch:type="MSShapeGroup" mask="url(#mask-2)"></path>
                </g>
                <path d="M85.9307172,10.0233172 L80.4068379,10.0213724 C79.8042621,10.0210483 79.3158517,10.5147103 79.315531,11.1234414 L79.3152103,11.902669 L79.6984345,11.902669 C82.1930793,11.902669 83.1205138,12.3188621 83.1205138,14.6153793 L83.1205138,17.8800966 L85.9281517,17.881069 C86.5307276,17.8813931 87.0191379,17.387731 87.0194586,16.7786759 L87.0213828,11.1263586 C87.0217034,10.5173034 86.5332931,10.0233172 85.9307172,10.0233172" id="Fill-9" fill="#95C03E" sketch:type="MSShapeGroup"></path>
            </g>
            <g id="Visa" sketch:type="MSLayerGroup" transform="translate(154.000000, 19.000000)">
                <g id="Visa_Inc._logo" transform="translate(3.018868, 6.111111)" sketch:type="MSShapeGroup">
                    <g id="g10" transform="translate(12.936751, 3.877908) scale(1, -1) translate(-12.936751, -3.877908) translate(0.043329, 0.005497)">
                        <g id="g4163" transform="translate(0.085803, 0.095612)">
                            <g id="g12" transform="translate(8.674480, 0.274499)" fill="#2B3894">
                                <path d="M0,0 L1.22509895,7.1242309 L3.1833756,7.1242309 L1.95838866,0 L0,0" id="path14"></path>
                            </g>
                            <g id="g16" transform="translate(11.799950, 0.069440)" fill="#2B3894">
                                <path d="M5.93620811,7.15442679 C5.54901053,7.29741011 4.94004519,7.45343974 4.18144259,7.45343974 C2.24534272,7.45343974 0.882478937,6.48654001 0.871166541,5.10215842 C0.858846109,4.07823369 1.84369664,3.50703688 2.58617066,3.16667555 C3.34925342,2.81779203 3.6056304,2.59453183 3.6026063,2.28257778 C3.59734211,1.80544064 2.99352895,1.58680978 2.43048521,1.58680978 C1.64645772,1.58680978 1.22991512,1.69444182 0.58589254,1.96041815 L0.333995709,2.07383686 L0.0601461086,0.479136171 C0.516786117,0.280706039 1.36331179,0.108473736 2.24187059,0.0994254899 C4.29949473,0.0994254899 5.6364856,1.05454147 5.65216615,2.53287751 C5.6592224,3.34490495 5.1373961,3.96050129 4.00727648,4.46867601 C3.32293249,4.79893698 2.90291777,5.01777827 2.90773394,5.35214251 C2.90818195,5.64831474 3.26256238,5.96521376 4.02956527,5.96521376 C4.67011572,5.97489328 5.13381198,5.83632887 5.49513665,5.69155694 L5.67098281,5.61001751 L5.93620811,7.15442679" id="path18"></path>
                            </g>
                            <g id="g20" transform="translate(17.207611, 0.170023)" fill="#2B3894">
                                <path d="M3.13610994,2.63030397 C3.29840363,3.03978969 3.91621729,4.62154928 3.91621729,4.62154928 C3.90479289,4.60282152 4.07761495,5.03429658 4.17651442,5.30132504 L4.30867905,4.68688603 C4.30867905,4.68688603 4.68445222,2.98644712 4.76184694,2.63030397 L3.13610994,2.63030397 L3.13610994,2.63030397 Z M5.55203464,7.22144693 L4.03863758,7.22144693 C3.56922913,7.22144693 3.21787281,7.09540277 3.0122336,6.63089109 L0.104051648,0.101950582 L2.16089176,0.101950582 C2.16089176,0.101950582 2.49645552,0.980261682 2.57261819,1.17301036 C2.79696205,1.17301036 4.79556012,1.16932793 5.08083412,1.16932793 C5.13952418,0.9207116 5.31929048,0.101950582 5.31929048,0.101950582 L7.1368902,0.101950582 L5.55203464,7.22144693 L5.55203464,7.22144693 Z" id="path22"></path>
                            </g>
                            <g id="g24" transform="translate(2.103434, 0.238306)" fill="#2B3894">
                                <path d="M4.92817277,7.15442679 L3.01144957,2.2974127 L2.80614638,3.28472359 C2.44896585,4.42227745 1.33710288,5.65525874 0.0934112748,6.27306454 L1.84694475,0.0424004999 L3.91946541,0.0435578337 L7.00338152,7.15442679 L4.92817277,7.15442679" id="path26"></path>
                            </g>
                            <g id="g28" transform="translate(0.087475, 3.504722)" fill="#F79510">
                                <path d="M3.24811387,3.89284987 L0.0901631609,3.89284987 L0.064066246,3.74523721 C2.52143239,3.15510221 4.14728139,1.7306348 4.82210505,0.0183069156 L4.13585699,3.29177281 C4.01746884,3.74323818 3.67339278,3.87706805 3.24811387,3.89284987" id="path30"></path>
                            </g>
                            <g id="g32" transform="translate(24.453705, 0.214002)" fill="#2B3894">
                                <path d="M0.448015706,0.526060793 L0.540754957,0.526060793 C0.606277255,0.526060793 0.619717726,0.562043352 0.619717726,0.590976695 C0.619717726,0.640742046 0.58533252,0.652315384 0.532018651,0.652315384 L0.448015706,0.652315384 L0.448015706,0.526060793 L0.448015706,0.526060793 Z M0.367932899,0.707656979 L0.559123601,0.707656979 C0.603701164,0.707656979 0.701480592,0.696609703 0.701480592,0.590976695 C0.701480592,0.562990261 0.692632282,0.523535702 0.62867804,0.497863935 L0.62867804,0.495654479 C0.683895976,0.486816658 0.686808078,0.437787792 0.690056192,0.398333233 C0.694088333,0.335416362 0.690056192,0.324158661 0.707528804,0.301958895 L0.624533895,0.301958895 C0.608741341,0.316899022 0.612325467,0.328577572 0.608741341,0.394545595 C0.608741341,0.432001123 0.603701164,0.470193137 0.513874015,0.470193137 L0.448015706,0.470193137 L0.448015706,0.301958895 L0.367932899,0.301958895 L0.367932899,0.707656979 L0.367932899,0.707656979 Z M0.525858435,0.156976541 C0.722313322,0.156976541 0.876654733,0.310165444 0.876654733,0.50154636 C0.876654733,0.693137701 0.722313322,0.846221392 0.525858435,0.846221392 C0.329515552,0.846221392 0.175286145,0.693137701 0.175286145,0.50154636 C0.175286145,0.310165444 0.329515552,0.156976541 0.525858435,0.156976541 L0.525858435,0.156976541 Z M0.525858435,0.907875717 C0.768122928,0.907875717 0.9584176,0.72575347 0.9584176,0.50154636 C0.9584176,0.277444462 0.768122928,0.0953222157 0.525858435,0.0953222157 C0.283705946,0.0953222157 0.0936352826,0.277444462 0.0936352826,0.50154636 C0.0936352826,0.72575347 0.283705946,0.907875717 0.525858435,0.907875717 L0.525858435,0.907875717 Z" id="path34"></path>
                            </g>
                        </g>
                    </g>
                </g>
                <rect id="Rectangle-176" fill="#F79510" sketch:type="MSShapeGroup" x="0.201503538" y="0" width="31.5969929" height="4.44444444"></rect>
                <rect id="Rectangle-176-Copy" fill="#2B3894" sketch:type="MSShapeGroup" x="0.201503538" y="15.5555556" width="31.5969929" height="4.44444444"></rect>
            </g>
            <g id="mastecard" sketch:type="MSLayerGroup" transform="translate(112.000000, 19.000000)">
                <path d="M0.0555360502,0.119054054 L31.2171912,0.119054054 L31.2171912,19.8808108 L0.0555360502,19.8808108 L0.0555360502,0.119054054 Z" id="Fill-1" fill="#000066" sketch:type="MSShapeGroup"></path>
                <g id="Group" transform="translate(1.347962, 1.351351)" sketch:type="MSShapeGroup">
                    <path d="M17.093511,8.64864865 C17.093511,13.3714865 13.2748683,17.1995946 8.5641442,17.1995946 C3.85301567,17.1995946 0.0341034483,13.3714865 0.0341034483,8.64864865 C0.0341034483,3.92594595 3.85301567,0.0974324324 8.5641442,0.0974324324 C13.2748683,0.0974324324 17.093511,3.92594595 17.093511,8.64864865" id="Fill-2" fill="#CC0000"></path>
                    <path d="M20.0156238,0.0974324324 C17.8113009,0.0974324324 15.8032414,0.935675676 14.28921,2.31081081 C13.9813354,2.59108108 13.6936803,2.89378378 13.4285361,3.21608108 L15.1516364,3.21608108 C15.3869906,3.50337838 15.6040125,3.80540541 15.8018934,4.12175676 L12.7778746,4.12175676 C12.5971129,4.41243243 12.4325266,4.71445946 12.2865423,5.02743243 L16.2932257,5.02743243 C16.4301787,5.32054054 16.5506865,5.62243243 16.6544796,5.9327027 L11.9252884,5.9327027 C11.8267524,6.2277027 11.7438527,6.52972973 11.6773981,6.83783784 L16.9019655,6.83783784 C17.0269216,7.42162162 17.093511,8.0272973 17.093511,8.64864865 C17.093511,9.59797297 16.9393041,10.5117568 16.6544796,11.3651351 L11.9252884,11.3651351 C12.0289467,11.6752703 12.1495893,11.9774324 12.2862727,12.2709459 L16.2932257,12.2709459 C16.146837,12.5831081 15.9830596,12.8854054 15.8012194,13.1764865 L12.7778746,13.1764865 C12.9752163,13.4918919 13.1926426,13.7943243 13.4285361,14.0812162 L15.1510972,14.0812162 C14.8863574,14.4037838 14.5985674,14.7064865 14.2896144,14.9867568 C15.803511,16.3618919 17.8113009,17.1995946 20.0156238,17.1995946 C24.726348,17.1995946 28.5452602,13.3714865 28.5452602,8.64864865 C28.5452602,3.92635135 24.726348,0.0974324324 20.0156238,0.0974324324" id="Fill-3" fill="#FF9900"></path>
                    <path d="M27.4083887,13.4152703 C27.4083887,13.2628378 27.5318621,13.1391892 27.684047,13.1391892 C27.8365016,13.1391892 27.9594357,13.2628378 27.9594357,13.4152703 C27.9594357,13.5678378 27.8365016,13.6916216 27.684047,13.6916216 C27.5318621,13.6916216 27.4083887,13.5678378 27.4083887,13.4152703 L27.4083887,13.4152703 Z M27.684047,13.6254054 C27.7992978,13.6254054 27.8933856,13.5312162 27.8933856,13.4152703 C27.8933856,13.2989189 27.7992978,13.2055405 27.684047,13.2055405 C27.5682571,13.2055405 27.4744389,13.2989189 27.4744389,13.4152703 C27.4744389,13.5312162 27.5682571,13.6254054 27.684047,13.6254054 L27.684047,13.6254054 Z M27.6467085,13.5364865 L27.590094,13.5364865 L27.590094,13.2941892 L27.692674,13.2941892 C27.713837,13.2941892 27.735674,13.2941892 27.7545455,13.3058108 C27.7738213,13.3195946 27.7851442,13.3427027 27.7851442,13.3667568 C27.7851442,13.3941892 27.769373,13.4198649 27.7430878,13.4295946 L27.7878401,13.5364865 L27.7251599,13.5364865 L27.6879561,13.4406757 L27.6467085,13.4406757 L27.6467085,13.5364865 L27.6467085,13.5364865 Z M27.6467085,13.3989189 L27.6779812,13.3989189 C27.6895737,13.3989189 27.7019749,13.3997297 27.712489,13.3941892 C27.7216552,13.3881081 27.7266426,13.3772973 27.7266426,13.3662162 C27.7266426,13.357027 27.720442,13.3462162 27.7127586,13.3414865 C27.7027837,13.3356757 27.6871473,13.3368919 27.6766332,13.3368919 L27.6467085,13.3368919 L27.6467085,13.3989189 L27.6467085,13.3989189 Z" id="Fill-4" fill="#FF9900"></path>
                    <path d="M6.57212539,9.58486486 C6.4750721,9.57378378 6.4320721,9.57027027 6.36534796,9.57027027 C5.84058621,9.57027027 5.57517241,9.75081081 5.57517241,10.1074324 C5.57517241,10.327027 5.7047116,10.4666216 5.90690596,10.4666216 C6.28420063,10.4666216 6.55608464,10.1066216 6.57212539,9.58486486 L6.57212539,9.58486486 Z M7.24570219,11.1566216 L6.47830721,11.1566216 L6.49596552,10.7909459 C6.26195925,11.0797297 5.94963636,11.2175676 5.5254326,11.2175676 C5.023721,11.2175676 4.67945141,10.8247297 4.67945141,10.2541892 C4.67945141,9.395 5.27794671,8.89405405 6.30522884,8.89405405 C6.4105047,8.89405405 6.54489655,8.90391892 6.6827931,8.92135135 C6.71136991,8.80486486 6.7189185,8.75540541 6.7189185,8.69256757 C6.7189185,8.45905405 6.55770219,8.37148649 6.12514107,8.37148649 C5.67209091,8.36689189 5.29843574,8.48 5.14476803,8.53054054 C5.15460815,8.47189189 5.27336364,7.73716216 5.27336364,7.73716216 C5.73450157,7.60121622 6.03887147,7.55040541 6.38138871,7.55040541 C7.17682132,7.55040541 7.59805956,7.90824324 7.59711599,8.58472973 C7.59873354,8.76621622 7.56867398,8.98945946 7.52203448,9.28364865 C7.44169592,9.79432432 7.26915674,10.89 7.24570219,11.1566216 L7.24570219,11.1566216 Z" id="Fill-5" fill="#000066"></path>
                    <path d="M4.29191223,11.1566216 L3.36586207,11.1566216 L3.89668966,7.82256757 L2.71196552,11.1566216 L2.08098433,11.1566216 L2.0029373,7.84121622 L1.44542006,11.1566216 L0.578545455,11.1566216 L1.30267085,6.81918919 L2.63432288,6.81918919 L2.71479624,9.24702703 L3.52721317,6.81918919 L5.00821944,6.81918919 L4.29191223,11.1566216" id="Fill-6" fill="#000066"></path>
                    <path d="M21.1599091,9.58486486 C21.062721,9.57378378 21.0202602,9.57027027 20.9536708,9.57027027 C20.4285047,9.57027027 20.1633605,9.75081081 20.1633605,10.1074324 C20.1633605,10.327027 20.2923605,10.4666216 20.495094,10.4666216 C20.8721191,10.4666216 21.1440031,10.1066216 21.1599091,9.58486486 L21.1599091,9.58486486 Z M21.8338903,11.1566216 L21.0666301,11.1566216 L21.0840188,10.7909459 C20.8500125,11.0797297 20.5376897,11.2175676 20.1138903,11.2175676 C19.6115047,11.2175676 19.2677743,10.8247297 19.2677743,10.2541892 C19.2677743,9.395 19.8664044,8.89405405 20.8934169,8.89405405 C20.9984232,8.89405405 21.1326803,8.90391892 21.2707116,8.92135135 C21.2994232,8.80486486 21.3067022,8.75540541 21.3067022,8.69256757 C21.3067022,8.45905405 21.1456207,8.37148649 20.7130596,8.37148649 C20.2600094,8.36689189 19.8863542,8.48 19.7324169,8.53054054 C19.7426614,8.47189189 19.8616865,7.73716216 19.8616865,7.73716216 C20.3226897,7.60121622 20.6271944,7.55040541 20.9691724,7.55040541 C21.7651442,7.55040541 22.1858433,7.90824324 22.1850345,8.58472973 C22.186652,8.76621622 22.1568621,8.98945946 22.109953,9.28364865 C22.0300188,9.79432432 21.8569404,10.89 21.8338903,11.1566216 L21.8338903,11.1566216 Z" id="Fill-7" fill="#000066"></path>
                    <path d="M11.3611661,11.102973 C11.1076144,11.182973 10.9100031,11.2175676 10.6958119,11.2175676 C10.2224075,11.2175676 9.96400313,10.9448649 9.96400313,10.4425676 C9.95753292,10.2866216 10.0320752,9.87648649 10.0909812,9.50243243 C10.1444953,9.17283784 10.4925392,7.09527027 10.4925392,7.09527027 L11.4129279,7.09527027 L11.3056301,7.62918919 L11.8615298,7.62918919 L11.7360345,8.47702703 L11.1779781,8.47702703 C11.0710846,9.1477027 10.9186301,9.98337838 10.9170125,10.0941892 C10.9170125,10.2760811 11.0137962,10.3555405 11.2340533,10.3555405 C11.3397335,10.3555405 11.4212853,10.3447297 11.4836959,10.3222973 L11.3611661,11.102973" id="Fill-8" fill="#000066"></path>
                    <path d="M14.1832602,11.0744595 C13.8670282,11.1713514 13.5622539,11.2186486 13.2388777,11.2175676 C12.2083605,11.2162162 11.6713323,10.677027 11.6713323,9.64391892 C11.6713323,8.43824324 12.3543448,7.55040541 13.2822821,7.55040541 C14.0410502,7.55040541 14.5259122,8.04743243 14.5259122,8.82648649 C14.5259122,9.08567568 14.4927524,9.33810811 14.412279,9.69432432 L12.579185,9.69432432 C12.5173135,10.2060811 12.84379,10.4191892 13.379605,10.4191892 C13.7087774,10.4191892 14.0061379,10.3510811 14.3363887,10.1974324 L14.1832602,11.0744595 L14.1832602,11.0744595 Z M13.6657774,8.98337838 C13.6711693,8.90972973 13.7633699,8.35364865 13.237395,8.35364865 C12.944348,8.35364865 12.734605,8.5777027 12.6495486,8.98337838 L13.6657774,8.98337838 L13.6657774,8.98337838 Z" id="Fill-9" fill="#000066"></path>
                    <path d="M7.80119749,8.74459459 C7.80119749,9.19027027 8.01687147,9.49797297 8.50618182,9.72918919 C8.88105016,9.90608108 8.93941693,9.95824324 8.93941693,10.1185135 C8.93941693,10.3381081 8.77375235,10.4378378 8.40764577,10.4378378 C8.13117868,10.4378378 7.87412226,10.3943243 7.57770533,10.2982432 C7.57770533,10.2982432 7.45638871,11.0760811 7.45059248,11.1132432 C7.66087461,11.1589189 7.84864577,11.2014865 8.41411599,11.2175676 C9.39111912,11.2175676 9.84255172,10.8445946 9.84255172,10.0385135 C9.84255172,9.55391892 9.65383699,9.26945946 9.18973354,9.05540541 C8.80165517,8.87702703 8.75676803,8.83689189 8.75676803,8.6722973 C8.75676803,8.48162162 8.91097492,8.38418919 9.21008777,8.38418919 C9.3917931,8.38418919 9.64008777,8.40364865 9.8755768,8.43702703 L10.0072727,7.61891892 C9.76747022,7.58067568 9.40392476,7.55040541 9.19229467,7.55040541 C8.15638558,7.55040541 7.79782759,8.0927027 7.80119749,8.74459459" id="Fill-10" fill="#000066"></path>
                    <path d="M18.6869373,7.64351351 C18.9441285,7.64351351 19.1842006,7.71054054 19.5144514,7.87756757 L19.6660972,6.93635135 C19.529953,6.88283784 19.0526395,6.56918919 18.6482508,6.56918919 C18.0287273,6.56918919 17.5042351,6.87783784 17.1362414,7.38608108 C16.598674,7.2077027 16.3774734,7.56824324 16.1068025,7.9277027 L15.8661912,7.98391892 C15.8843887,7.86567568 15.9009687,7.74810811 15.8957116,7.62918919 L15.0447429,7.62918919 C14.928953,8.72121622 14.7231191,9.82689189 14.5619028,10.9193243 L14.5198464,11.1566216 L15.4463009,11.1566216 C15.6007774,10.1493243 15.6852947,9.50459459 15.7369216,9.06783784 L16.0857743,8.87405405 C16.13821,8.67932432 16.3009091,8.61391892 16.6280596,8.62189189 C16.5854639,8.85189189 16.562279,9.09418919 16.562279,9.34486486 C16.562279,10.4990541 17.184094,11.2175676 18.1806426,11.2175676 C18.4372947,11.2175676 18.6579561,11.1837838 18.999395,11.0905405 L19.1615549,10.1021622 C18.8546238,10.2533784 18.6032288,10.3245946 18.3751536,10.3245946 C17.8367774,10.3245946 17.5111097,9.92608108 17.5111097,9.26783784 C17.5111097,8.31256757 17.9952978,7.64351351 18.6869373,7.64351351" id="Fill-11" fill="#000066"></path>
                    <path d="M26.5269561,6.81918919 L26.3211223,8.0722973 C26.0683793,7.73837838 25.7963605,7.49648649 25.4372633,7.49648649 C24.9699248,7.49648649 24.5447774,7.85162162 24.2662884,8.37459459 C23.8783448,8.29391892 23.4777304,8.15675676 23.4777304,8.15675676 L23.4774608,8.16013514 C23.5081944,7.86783784 23.5214044,7.69 23.5183041,7.62918919 L22.667605,7.62918919 C22.5520846,8.72121622 22.3458464,9.82689189 22.1850345,10.9193243 L22.1424389,11.1566216 L23.069163,11.1566216 C23.1941191,10.3425676 23.2896897,9.66581081 23.3603229,9.12986486 C23.6769592,8.84297297 23.8354796,8.59324324 24.1548119,8.60945946 C24.0132759,8.95297297 23.930511,9.34837838 23.930511,9.75405405 C23.930511,10.6355405 24.3752038,11.2175676 25.0486458,11.2175676 C25.3880627,11.2175676 25.6483542,11.1001351 25.9024451,10.8282432 L25.8587712,11.1563514 L26.7349467,11.1563514 L27.4402006,6.81918919 L26.5269561,6.81918919 L26.5269561,6.81918919 Z M25.3687868,10.3417568 C25.0536332,10.3417568 24.8941693,10.1074324 24.8941693,9.64635135 C24.8941693,8.95297297 25.1924734,8.46148649 25.6123636,8.46148649 C25.9306176,8.46148649 26.1030219,8.70418919 26.1030219,9.1522973 C26.1030219,9.85162162 25.7997304,10.3417568 25.3687868,10.3417568 L25.3687868,10.3417568 Z" id="Fill-12" fill="#000066"></path>
                    <path d="M4.55840439,10.8991892 L3.63248903,10.8991892 L4.16304702,7.56513514 L2.97859248,10.8991892 L2.34747649,10.8991892 L2.26942947,7.58445946 L1.71191223,10.8991892 L0.845172414,10.8991892 L1.56916301,6.56216216 L2.90081505,6.56216216 L2.93788401,9.24702703 L3.83643574,6.56216216 L5.2745768,6.56216216 L4.55840439,10.8991892" id="Fill-13" fill="#FFFFFF"></path>
                    <path d="M6.83875235,9.32797297 C6.74169906,9.31662162 6.69883386,9.31351351 6.63210972,9.31351351 C6.10721317,9.31351351 5.84152978,9.49378378 5.84152978,9.85013514 C5.84152978,10.0694595 5.97120376,10.2098649 6.17353292,10.2098649 C6.55082759,10.2098649 6.8227116,9.84986486 6.83875235,9.32797297 L6.83875235,9.32797297 Z M7.51219436,10.8991892 L6.74506897,10.8991892 L6.76259248,10.5339189 C6.52858621,10.8224324 6.21626332,10.9604054 5.79205956,10.9604054 C5.29021317,10.9604054 4.94621317,10.5671622 4.94621317,9.99662162 C4.94621317,9.13743243 5.54457367,8.63716216 6.5718558,8.63716216 C6.67699687,8.63716216 6.81152351,8.64675676 6.94928527,8.66459459 C6.97799687,8.54783784 6.98554545,8.49824324 6.98554545,8.435 C6.98554545,8.20175676 6.82419436,8.11486486 6.39176803,8.11486486 C5.93844828,8.10945946 5.5650627,8.22256757 5.41139498,8.27297297 C5.42110031,8.21459459 5.5398558,7.47986486 5.5398558,7.47986486 C6.00126332,7.34418919 6.30563323,7.29297297 6.64815047,7.29297297 C7.44331348,7.29297297 7.86441693,7.65121622 7.86360815,8.32743243 C7.86522571,8.50864865 7.83530094,8.73283784 7.78879624,9.02635135 C7.70832288,9.53675676 7.5357837,10.632973 7.51219436,10.8991892 L7.51219436,10.8991892 Z" id="Fill-14" fill="#FFFFFF"></path>
                    <path d="M19.9324545,6.67891892 L19.7808088,7.62013514 C19.4501536,7.45351351 19.2106207,7.38608108 18.9535643,7.38608108 C18.2621944,7.38608108 17.7773323,8.05594595 17.7773323,9.01135135 C17.7773323,9.66959459 18.1032696,10.0672973 18.6416458,10.0672973 C18.8695862,10.0672973 19.1215204,9.99662162 19.428047,9.84486486 L19.265348,10.8332432 C18.9244483,10.9264865 18.7037868,10.9604054 18.4471348,10.9604054 C17.450047,10.9604054 16.8290408,10.2417568 16.8290408,9.08783784 C16.8290408,7.5372973 17.687558,6.45364865 18.9146082,6.45364865 C19.3189969,6.45364865 19.7965799,6.62540541 19.9324545,6.67891892" id="Fill-15" fill="#FFFFFF"></path>
                    <path d="M21.4262665,9.32797297 C21.3296176,9.31662162 21.2867524,9.31351351 21.220163,9.31351351 C20.6954013,9.31351351 20.4297179,9.49378378 20.4297179,9.85013514 C20.4297179,10.0694595 20.5593918,10.2098649 20.7615862,10.2098649 C21.1384765,10.2098649 21.4107649,9.84986486 21.4262665,9.32797297 L21.4262665,9.32797297 Z M22.1002476,10.8991892 L21.3331223,10.8991892 L21.350511,10.5339189 C21.1163699,10.8224324 20.8041818,10.9604054 20.3802476,10.9604054 C19.8779969,10.9604054 19.5344013,10.5671622 19.5344013,9.99662162 C19.5344013,9.13743243 20.1323574,8.63716216 21.1599091,8.63716216 C21.2649154,8.63716216 21.3991724,8.64675676 21.5367994,8.66459459 C21.565511,8.54783784 21.5731944,8.49824324 21.5731944,8.435 C21.5731944,8.20175676 21.4123824,8.11486486 20.9795517,8.11486486 C20.5266364,8.10945946 20.1533856,8.22256757 19.9993135,8.27297297 C20.0091536,8.21459459 20.1277743,7.47986486 20.1277743,7.47986486 C20.5893166,7.34418919 20.8934169,7.29297297 21.2359342,7.29297297 C22.0310972,7.29297297 22.4524702,7.65121622 22.4515266,8.32743243 C22.453279,8.50864865 22.4233542,8.73283784 22.3767147,9.02635135 C22.2963762,9.53675676 22.1239718,10.632973 22.1002476,10.8991892 L22.1002476,10.8991892 Z" id="Fill-16" fill="#FFFFFF"></path>
                    <path d="M11.6275235,10.8456757 C11.3742414,10.9256757 11.1766301,10.9604054 10.9624389,10.9604054 C10.4890345,10.9604054 10.2304953,10.6875676 10.2304953,10.1858108 C10.2240251,10.0293243 10.298837,9.62 10.3576082,9.24540541 C10.4109875,8.91554054 10.7591661,6.83824324 10.7591661,6.83824324 L11.6795549,6.83824324 L11.5719875,7.37202703 L12.0444483,7.37202703 L11.9186834,8.21959459 L11.444605,8.21959459 C11.3377116,8.89094595 11.1851223,9.72608108 11.1833699,9.83689189 C11.1833699,10.0193243 11.2804232,10.0982432 11.5006803,10.0982432 C11.6060909,10.0982432 11.6877774,10.0878378 11.7503229,10.065 L11.6275235,10.8456757" id="Fill-17" fill="#FFFFFF"></path>
                    <path d="M14.4500219,10.8177027 C14.13379,10.9147297 13.8282069,10.9606757 13.5053699,10.9604054 C12.4747179,10.9597297 11.9378245,10.4198649 11.9378245,9.38689189 C11.9378245,8.18081081 12.6209718,7.29297297 13.5482351,7.29297297 C14.3078119,7.29297297 14.7922696,7.79 14.7922696,8.57013514 C14.7922696,8.82864865 14.7585705,9.08094595 14.6790408,9.4372973 L12.8459467,9.4372973 C12.7836708,9.94905405 13.1105517,10.1625676 13.6458276,10.1625676 C13.9751348,10.1625676 14.2724953,10.0941892 14.6032853,9.94013514 L14.4500219,10.8177027 L14.4500219,10.8177027 Z M13.932674,8.72594595 C13.9376614,8.65216216 14.0301317,8.09635135 13.5041567,8.09635135 C13.2111097,8.09635135 13.0015016,8.32081081 12.9160408,8.72594595 L13.932674,8.72594595 L13.932674,8.72594595 Z" id="Fill-18" fill="#FFFFFF"></path>
                    <path d="M8.06755486,8.48702703 C8.06755486,8.93364865 8.28349843,9.24067568 8.77294357,9.47216216 C9.14781191,9.64891892 9.20577429,9.70121622 9.20577429,9.86148649 C9.20577429,10.0813514 9.04051411,10.1805405 8.67400313,10.1805405 C8.39767085,10.1805405 8.14074922,10.1375676 7.84419749,10.0417568 C7.84419749,10.0417568 7.72288088,10.8189189 7.71708464,10.8556757 C7.92750157,10.9018919 8.11527273,10.9440541 8.68060815,10.9604054 C9.65788088,10.9604054 10.1091787,10.5875676 10.1091787,9.78148649 C10.1091787,9.29662162 9.92019436,9.0122973 9.4563605,8.79878378 C9.06814734,8.61972973 9.02352978,8.58013514 9.02352978,8.41527027 C9.02352978,8.22459459 9.17733229,8.12648649 9.47671473,8.12648649 C9.65828527,8.12648649 9.90671473,8.14675676 10.142069,8.18 L10.2738997,7.36202703 C10.0340972,7.32405405 9.67068652,7.29297297 9.45878683,7.29297297 C8.42287774,7.29297297 8.06445455,7.83540541 8.06755486,8.48702703" id="Fill-19" fill="#FFFFFF"></path>
                    <path d="M27.0013041,10.8991892 L26.1255329,10.8991892 L26.1689373,10.5709459 C25.9148464,10.842973 25.6544201,10.9604054 25.3151379,10.9604054 C24.6421003,10.9604054 24.1970031,10.3790541 24.1970031,9.49662162 C24.1970031,8.32337838 24.8872947,7.33445946 25.7036207,7.33445946 C26.0628527,7.33445946 26.3347367,7.48148649 26.5880188,7.81554054 L26.7934483,6.56216216 L27.7066928,6.56216216 L27.0013041,10.8991892 L27.0013041,10.8991892 Z M25.635279,10.0841892 C26.0667618,10.0841892 26.3695141,9.59432432 26.3695141,8.89567568 C26.3695141,8.44743243 26.1971097,8.20405405 25.878721,8.20405405 C25.4588307,8.20405405 25.1605266,8.69554054 25.1605266,9.38918919 C25.1605266,9.85094595 25.320395,10.0841892 25.635279,10.0841892 L25.635279,10.0841892 Z" id="Fill-20" fill="#FFFFFF"></path>
                    <path d="M22.9343668,7.37202703 C22.818442,8.46378378 22.6126082,9.56959459 22.4515266,10.6618919 L22.4093354,10.8991892 L23.3355204,10.8991892 C23.6667147,8.74216216 23.7465141,8.32121622 24.2662884,8.37378378 C24.3489185,7.9322973 24.5028558,7.54567568 24.6177022,7.35081081 C24.2298934,7.26972973 24.0132759,7.48945946 23.729395,7.90702703 C23.7520408,7.72635135 23.792884,7.55108108 23.7852006,7.37202703 L22.9343668,7.37202703" id="Fill-21" fill="#FFFFFF"></path>
                    <path d="M15.3117743,7.37202703 C15.1953103,8.46378378 14.9892069,9.56959459 14.828395,10.6618919 L14.7862038,10.8991892 L15.7126583,10.8991892 C16.0441223,8.74216216 16.123652,8.32121622 16.6426176,8.37378378 C16.7257868,7.9322973 16.8801285,7.54567568 16.9945705,7.35081081 C16.6070313,7.26972973 16.3901442,7.48945946 16.1068025,7.90702703 C16.1291787,7.72635135 16.1702915,7.55108108 16.162069,7.37202703 L15.3117743,7.37202703" id="Fill-22" fill="#FFFFFF"></path>
                    <path d="M27.4081191,10.6231081 C27.4081191,10.47 27.5318621,10.3467568 27.6832382,10.3467568 C27.8356928,10.3467568 27.958627,10.47 27.958627,10.6231081 C27.958627,10.7751351 27.8356928,10.8991892 27.6832382,10.8991892 C27.5318621,10.8991892 27.4081191,10.7751351 27.4081191,10.6231081 L27.4081191,10.6231081 Z M27.6832382,10.832973 C27.7992978,10.832973 27.893116,10.7387838 27.893116,10.6231081 C27.893116,10.5072973 27.7992978,10.4131081 27.6832382,10.4131081 C27.5677179,10.4131081 27.4741693,10.5072973 27.4741693,10.6231081 C27.4741693,10.7387838 27.5677179,10.832973 27.6832382,10.832973 L27.6832382,10.832973 Z M27.6461693,10.7437838 L27.5898245,10.7437838 L27.5898245,10.5014865 L27.6921348,10.5014865 C27.7135674,10.5014865 27.7351348,10.5022973 27.7538715,10.5139189 C27.7738213,10.527027 27.784605,10.5502703 27.784605,10.5743243 C27.784605,10.6017568 27.7688339,10.6274324 27.7430878,10.6371622 L27.7875705,10.7437838 L27.7248903,10.7437838 L27.6876865,10.647973 L27.6461693,10.647973 L27.6461693,10.7437838 L27.6461693,10.7437838 Z M27.6461693,10.6064865 L27.677442,10.6064865 C27.6887649,10.6064865 27.7019749,10.6075676 27.7119498,10.6017568 C27.721116,10.5959459 27.7258339,10.5843243 27.7258339,10.5737838 C27.7258339,10.5645946 27.720442,10.5543243 27.712489,10.5486486 C27.7027837,10.5432432 27.6868777,10.5447297 27.6763636,10.5447297 L27.6461693,10.5447297 L27.6461693,10.6064865 L27.6461693,10.6064865 Z" id="Fill-23" fill="#FFFFFF"></path>
                </g>
            </g>
        </g>
    </g>
</svg>